<mxfile host="app.diagrams.net" agent="Mozilla/5.0 (Windows NT 10.0; Win64; x64) AppleWebKit/537.36 (KHTML, like Gecko) Chrome/134.0.0.0 Safari/537.36" version="26.0.16">
  <diagram name="Page-1" id="bjSsGq9fpyZJwTvERgMK">
    <mxGraphModel dx="2025" dy="609" grid="1" gridSize="10" guides="1" tooltips="1" connect="1" arrows="1" fold="1" page="1" pageScale="1" pageWidth="850" pageHeight="1100" math="0" shadow="0">
      <root>
        <mxCell id="0" />
        <mxCell id="1" parent="0" />
        <mxCell id="rdabpWPBYLlJplFQ-1B5-28" style="edgeStyle=orthogonalEdgeStyle;rounded=0;orthogonalLoop=1;jettySize=auto;html=1;exitX=0.5;exitY=1;exitDx=0;exitDy=0;endArrow=none;startFill=0;" edge="1" parent="1" source="rdabpWPBYLlJplFQ-1B5-1">
          <mxGeometry relative="1" as="geometry">
            <mxPoint x="390" y="130" as="targetPoint" />
          </mxGeometry>
        </mxCell>
        <mxCell id="rdabpWPBYLlJplFQ-1B5-1" value="&lt;b&gt;President&amp;nbsp;&lt;/b&gt;&lt;div&gt;Diane Murphy&lt;/div&gt;" style="rounded=0;whiteSpace=wrap;html=1;" vertex="1" parent="1">
          <mxGeometry x="330" y="40" width="120" height="60" as="geometry" />
        </mxCell>
        <mxCell id="rdabpWPBYLlJplFQ-1B5-29" style="edgeStyle=orthogonalEdgeStyle;rounded=0;orthogonalLoop=1;jettySize=auto;html=1;entryX=0.5;entryY=0;entryDx=0;entryDy=0;" edge="1" parent="1" target="rdabpWPBYLlJplFQ-1B5-2">
          <mxGeometry relative="1" as="geometry">
            <mxPoint x="390" y="130" as="sourcePoint" />
            <mxPoint x="390" y="220" as="targetPoint" />
          </mxGeometry>
        </mxCell>
        <mxCell id="rdabpWPBYLlJplFQ-1B5-2" value="&lt;b&gt;VP Sales&lt;/b&gt;&lt;br&gt;Mary Patterson" style="rounded=0;whiteSpace=wrap;html=1;" vertex="1" parent="1">
          <mxGeometry x="480" y="150" width="120" height="60" as="geometry" />
        </mxCell>
        <mxCell id="rdabpWPBYLlJplFQ-1B5-3" value="&lt;b&gt;VP Marketing&lt;/b&gt;&lt;br&gt;Jeff Firrelli" style="rounded=0;whiteSpace=wrap;html=1;" vertex="1" parent="1">
          <mxGeometry x="190" y="150" width="120" height="60" as="geometry" />
        </mxCell>
        <mxCell id="rdabpWPBYLlJplFQ-1B5-4" value="&lt;b&gt;Sales Manager&lt;/b&gt;&lt;br&gt;&lt;b&gt;(NA)&lt;/b&gt;&lt;br&gt;Anthony Bow" style="rounded=0;whiteSpace=wrap;html=1;" vertex="1" parent="1">
          <mxGeometry x="10" y="280" width="120" height="60" as="geometry" />
        </mxCell>
        <mxCell id="rdabpWPBYLlJplFQ-1B5-54" style="edgeStyle=orthogonalEdgeStyle;rounded=0;orthogonalLoop=1;jettySize=auto;html=1;endArrow=none;startFill=0;" edge="1" parent="1" source="rdabpWPBYLlJplFQ-1B5-5">
          <mxGeometry relative="1" as="geometry">
            <mxPoint x="540" y="560" as="targetPoint" />
          </mxGeometry>
        </mxCell>
        <mxCell id="rdabpWPBYLlJplFQ-1B5-5" value="&lt;b&gt;Sales Manager&lt;/b&gt;&lt;br&gt;&lt;b&gt;(APAC)&lt;/b&gt;&lt;br&gt;William Patterson" style="rounded=0;whiteSpace=wrap;html=1;" vertex="1" parent="1">
          <mxGeometry x="480" y="280" width="120" height="60" as="geometry" />
        </mxCell>
        <mxCell id="rdabpWPBYLlJplFQ-1B5-27" style="edgeStyle=orthogonalEdgeStyle;rounded=0;orthogonalLoop=1;jettySize=auto;html=1;endArrow=none;startFill=0;" edge="1" parent="1" source="rdabpWPBYLlJplFQ-1B5-6">
          <mxGeometry relative="1" as="geometry">
            <mxPoint x="830" y="730" as="targetPoint" />
          </mxGeometry>
        </mxCell>
        <mxCell id="rdabpWPBYLlJplFQ-1B5-6" value="&lt;b&gt;Sale Manager&lt;/b&gt;&lt;br&gt;&lt;b&gt;(EMEA)&lt;/b&gt;&lt;br&gt;Gerard Bondur" style="rounded=0;whiteSpace=wrap;html=1;" vertex="1" parent="1">
          <mxGeometry x="770" y="280" width="120" height="60" as="geometry" />
        </mxCell>
        <mxCell id="rdabpWPBYLlJplFQ-1B5-53" style="edgeStyle=orthogonalEdgeStyle;rounded=0;orthogonalLoop=1;jettySize=auto;html=1;" edge="1" parent="1" source="rdabpWPBYLlJplFQ-1B5-7" target="rdabpWPBYLlJplFQ-1B5-8">
          <mxGeometry relative="1" as="geometry" />
        </mxCell>
        <mxCell id="rdabpWPBYLlJplFQ-1B5-7" value="&lt;b&gt;Sales Rep&lt;/b&gt;&lt;br&gt;Mami Nishi" style="rounded=0;whiteSpace=wrap;html=1;" vertex="1" parent="1">
          <mxGeometry x="1000" y="280" width="120" height="60" as="geometry" />
        </mxCell>
        <mxCell id="rdabpWPBYLlJplFQ-1B5-8" value="&lt;b&gt;Sales Rep&lt;/b&gt;&lt;br&gt;Yoshimi Kato" style="rounded=0;whiteSpace=wrap;html=1;" vertex="1" parent="1">
          <mxGeometry x="1000" y="410" width="120" height="60" as="geometry" />
        </mxCell>
        <mxCell id="rdabpWPBYLlJplFQ-1B5-9" value="&lt;br&gt;Sales Rep&lt;div style=&quot;forced-color-adjust: none;&quot;&gt;&lt;span style=&quot;font-weight: normal;&quot;&gt;Leslie Thompson&lt;/span&gt;&lt;br&gt;&lt;br&gt;&lt;/div&gt;" style="rounded=0;whiteSpace=wrap;html=1;fontStyle=1" vertex="1" parent="1">
          <mxGeometry x="340" y="410" width="120" height="60" as="geometry" />
        </mxCell>
        <mxCell id="rdabpWPBYLlJplFQ-1B5-10" value="&lt;br&gt;Sales Rep&lt;div style=&quot;forced-color-adjust: none;&quot;&gt;&lt;span style=&quot;font-weight: normal;&quot;&gt;Julie Firrelli&lt;/span&gt;&lt;br&gt;&lt;br&gt;&lt;/div&gt;" style="rounded=0;whiteSpace=wrap;html=1;fontStyle=1" vertex="1" parent="1">
          <mxGeometry x="180" y="410" width="120" height="60" as="geometry" />
        </mxCell>
        <mxCell id="rdabpWPBYLlJplFQ-1B5-11" value="&lt;br&gt;Sales Rep&lt;div style=&quot;forced-color-adjust: none;&quot;&gt;&lt;span style=&quot;font-weight: normal;&quot;&gt;Steve Patterson&lt;/span&gt;&lt;br&gt;&lt;br&gt;&lt;/div&gt;" style="rounded=0;whiteSpace=wrap;html=1;fontStyle=1" vertex="1" parent="1">
          <mxGeometry x="30" y="411" width="120" height="60" as="geometry" />
        </mxCell>
        <mxCell id="rdabpWPBYLlJplFQ-1B5-12" value="&lt;br&gt;Sales Rep&lt;div style=&quot;forced-color-adjust: none;&quot;&gt;&lt;span style=&quot;font-weight: normal;&quot;&gt;George Vanauf&lt;/span&gt;&lt;br&gt;&lt;br&gt;&lt;/div&gt;" style="rounded=0;whiteSpace=wrap;html=1;fontStyle=1" vertex="1" parent="1">
          <mxGeometry x="-120" y="410" width="120" height="60" as="geometry" />
        </mxCell>
        <mxCell id="rdabpWPBYLlJplFQ-1B5-13" value="&lt;br&gt;Sales Rep&lt;div style=&quot;forced-color-adjust: none;&quot;&gt;&lt;span style=&quot;font-weight: normal;&quot;&gt;Foon Yue Tseng&lt;/span&gt;&lt;br&gt;&lt;br&gt;&lt;/div&gt;" style="rounded=0;whiteSpace=wrap;html=1;fontStyle=1" vertex="1" parent="1">
          <mxGeometry x="-280" y="410" width="120" height="60" as="geometry" />
        </mxCell>
        <mxCell id="rdabpWPBYLlJplFQ-1B5-14" value="&lt;br&gt;Sales Rep&lt;div style=&quot;forced-color-adjust: none;&quot;&gt;&lt;span style=&quot;font-weight: normal;&quot;&gt;Leslie Jennings&lt;/span&gt;&lt;br&gt;&lt;br&gt;&lt;/div&gt;" style="rounded=0;whiteSpace=wrap;html=1;fontStyle=1" vertex="1" parent="1">
          <mxGeometry x="-430" y="410" width="120" height="60" as="geometry" />
        </mxCell>
        <mxCell id="rdabpWPBYLlJplFQ-1B5-15" value="&lt;br&gt;Sales Rep&lt;div style=&quot;forced-color-adjust: none;&quot;&gt;&lt;span style=&quot;font-weight: normal;&quot;&gt;Tom King&lt;/span&gt;&lt;br&gt;&lt;br&gt;&lt;/div&gt;" style="rounded=0;whiteSpace=wrap;html=1;fontStyle=1" vertex="1" parent="1">
          <mxGeometry x="640" y="630" width="120" height="60" as="geometry" />
        </mxCell>
        <mxCell id="rdabpWPBYLlJplFQ-1B5-16" value="&lt;br&gt;Sales Rep&lt;div style=&quot;forced-color-adjust: none;&quot;&gt;&lt;span style=&quot;font-weight: normal;&quot;&gt;Peter Marsh&lt;/span&gt;&lt;br&gt;&lt;br&gt;&lt;/div&gt;" style="rounded=0;whiteSpace=wrap;html=1;fontStyle=1" vertex="1" parent="1">
          <mxGeometry x="480" y="630" width="120" height="60" as="geometry" />
        </mxCell>
        <mxCell id="rdabpWPBYLlJplFQ-1B5-17" value="&lt;br&gt;Sales Rep&lt;div style=&quot;forced-color-adjust: none;&quot;&gt;&lt;span style=&quot;font-weight: normal;&quot;&gt;Andy Fixter&lt;/span&gt;&lt;br&gt;&lt;br&gt;&lt;/div&gt;" style="rounded=0;whiteSpace=wrap;html=1;fontStyle=1" vertex="1" parent="1">
          <mxGeometry x="320" y="630" width="120" height="60" as="geometry" />
        </mxCell>
        <mxCell id="rdabpWPBYLlJplFQ-1B5-18" value="&lt;br&gt;Sales Rep&lt;div style=&quot;forced-color-adjust: none;&quot;&gt;&lt;span style=&quot;font-weight: 400;&quot;&gt;Loui Bondur&lt;/span&gt;&lt;br&gt;&lt;br&gt;&lt;/div&gt;" style="rounded=0;whiteSpace=wrap;html=1;fontStyle=1" vertex="1" parent="1">
          <mxGeometry x="620" y="771" width="120" height="60" as="geometry" />
        </mxCell>
        <mxCell id="rdabpWPBYLlJplFQ-1B5-19" value="Sales Rep&lt;div style=&quot;forced-color-adjust: none;&quot;&gt;&lt;span style=&quot;font-weight: normal;&quot;&gt;Pamela Castilo&lt;/span&gt;&lt;/div&gt;" style="rounded=0;whiteSpace=wrap;html=1;fontStyle=1" vertex="1" parent="1">
          <mxGeometry x="460" y="771" width="120" height="60" as="geometry" />
        </mxCell>
        <mxCell id="rdabpWPBYLlJplFQ-1B5-20" value="&lt;br&gt;Sales Rep&lt;div style=&quot;forced-color-adjust: none;&quot;&gt;&lt;span style=&quot;font-weight: 400;&quot;&gt;Gerard Hernandes&lt;/span&gt;&lt;br&gt;&lt;br&gt;&lt;/div&gt;" style="rounded=0;whiteSpace=wrap;html=1;fontStyle=1" vertex="1" parent="1">
          <mxGeometry x="310" y="771" width="120" height="60" as="geometry" />
        </mxCell>
        <mxCell id="rdabpWPBYLlJplFQ-1B5-21" value="&lt;br&gt;Sales Rep&lt;div style=&quot;forced-color-adjust: none;&quot;&gt;&lt;span style=&quot;font-weight: normal;&quot;&gt;Martin Gerard&lt;/span&gt;&lt;br&gt;&lt;br&gt;&lt;/div&gt;" style="rounded=0;whiteSpace=wrap;html=1;fontStyle=1" vertex="1" parent="1">
          <mxGeometry x="1100" y="771" width="120" height="60" as="geometry" />
        </mxCell>
        <mxCell id="rdabpWPBYLlJplFQ-1B5-22" value="Sales Rep&lt;div&gt;&lt;span style=&quot;font-weight: 400;&quot;&gt;Barry Jones&lt;/span&gt;&lt;/div&gt;" style="rounded=0;whiteSpace=wrap;html=1;fontStyle=1" vertex="1" parent="1">
          <mxGeometry x="940" y="771" width="120" height="60" as="geometry" />
        </mxCell>
        <mxCell id="rdabpWPBYLlJplFQ-1B5-23" value="Sales Rep&lt;div style=&quot;forced-color-adjust: none;&quot;&gt;&lt;span style=&quot;font-weight: normal;&quot;&gt;Larry Bott&lt;/span&gt;&lt;/div&gt;" style="rounded=0;whiteSpace=wrap;html=1;fontStyle=1" vertex="1" parent="1">
          <mxGeometry x="780" y="771" width="120" height="60" as="geometry" />
        </mxCell>
        <mxCell id="rdabpWPBYLlJplFQ-1B5-30" style="edgeStyle=orthogonalEdgeStyle;rounded=0;orthogonalLoop=1;jettySize=auto;html=1;entryX=0.5;entryY=0;entryDx=0;entryDy=0;" edge="1" parent="1" target="rdabpWPBYLlJplFQ-1B5-3">
          <mxGeometry relative="1" as="geometry">
            <mxPoint x="390" y="130" as="sourcePoint" />
            <mxPoint x="550" y="160" as="targetPoint" />
          </mxGeometry>
        </mxCell>
        <mxCell id="rdabpWPBYLlJplFQ-1B5-31" style="edgeStyle=orthogonalEdgeStyle;rounded=0;orthogonalLoop=1;jettySize=auto;html=1;exitX=0.5;exitY=1;exitDx=0;exitDy=0;endArrow=none;startFill=0;" edge="1" parent="1">
          <mxGeometry relative="1" as="geometry">
            <mxPoint x="540" y="240" as="targetPoint" />
            <mxPoint x="540" y="210" as="sourcePoint" />
          </mxGeometry>
        </mxCell>
        <mxCell id="rdabpWPBYLlJplFQ-1B5-32" style="edgeStyle=orthogonalEdgeStyle;rounded=0;orthogonalLoop=1;jettySize=auto;html=1;entryX=0.5;entryY=0;entryDx=0;entryDy=0;" edge="1" parent="1" target="rdabpWPBYLlJplFQ-1B5-7">
          <mxGeometry relative="1" as="geometry">
            <mxPoint x="540" y="240" as="sourcePoint" />
            <mxPoint x="690" y="260" as="targetPoint" />
          </mxGeometry>
        </mxCell>
        <mxCell id="rdabpWPBYLlJplFQ-1B5-33" style="edgeStyle=orthogonalEdgeStyle;rounded=0;orthogonalLoop=1;jettySize=auto;html=1;entryX=0.5;entryY=0;entryDx=0;entryDy=0;" edge="1" parent="1" target="rdabpWPBYLlJplFQ-1B5-4">
          <mxGeometry relative="1" as="geometry">
            <mxPoint x="540" y="240" as="sourcePoint" />
            <mxPoint x="400" y="260" as="targetPoint" />
          </mxGeometry>
        </mxCell>
        <mxCell id="rdabpWPBYLlJplFQ-1B5-37" style="edgeStyle=orthogonalEdgeStyle;rounded=0;orthogonalLoop=1;jettySize=auto;html=1;" edge="1" parent="1" target="rdabpWPBYLlJplFQ-1B5-6">
          <mxGeometry relative="1" as="geometry">
            <mxPoint x="540" y="240" as="sourcePoint" />
            <mxPoint x="1100" y="290" as="targetPoint" />
          </mxGeometry>
        </mxCell>
        <mxCell id="rdabpWPBYLlJplFQ-1B5-38" style="edgeStyle=orthogonalEdgeStyle;rounded=0;orthogonalLoop=1;jettySize=auto;html=1;entryX=0.5;entryY=0;entryDx=0;entryDy=0;" edge="1" parent="1" target="rdabpWPBYLlJplFQ-1B5-5">
          <mxGeometry relative="1" as="geometry">
            <mxPoint x="540" y="240" as="sourcePoint" />
            <mxPoint x="840" y="290" as="targetPoint" />
          </mxGeometry>
        </mxCell>
        <mxCell id="rdabpWPBYLlJplFQ-1B5-39" style="edgeStyle=orthogonalEdgeStyle;rounded=0;orthogonalLoop=1;jettySize=auto;html=1;exitX=0.5;exitY=1;exitDx=0;exitDy=0;endArrow=none;startFill=0;" edge="1" parent="1">
          <mxGeometry relative="1" as="geometry">
            <mxPoint x="79.45" y="371" as="targetPoint" />
            <mxPoint x="79.45" y="341" as="sourcePoint" />
          </mxGeometry>
        </mxCell>
        <mxCell id="rdabpWPBYLlJplFQ-1B5-40" style="edgeStyle=orthogonalEdgeStyle;rounded=0;orthogonalLoop=1;jettySize=auto;html=1;entryX=0.5;entryY=0;entryDx=0;entryDy=0;" edge="1" parent="1" target="rdabpWPBYLlJplFQ-1B5-9">
          <mxGeometry relative="1" as="geometry">
            <mxPoint x="79.45" y="371" as="sourcePoint" />
            <mxPoint x="629" y="411" as="targetPoint" />
          </mxGeometry>
        </mxCell>
        <mxCell id="rdabpWPBYLlJplFQ-1B5-41" style="edgeStyle=orthogonalEdgeStyle;rounded=0;orthogonalLoop=1;jettySize=auto;html=1;entryX=0.5;entryY=0;entryDx=0;entryDy=0;" edge="1" parent="1">
          <mxGeometry relative="1" as="geometry">
            <mxPoint x="79.45" y="371" as="sourcePoint" />
            <mxPoint x="-390.55" y="411" as="targetPoint" />
          </mxGeometry>
        </mxCell>
        <mxCell id="rdabpWPBYLlJplFQ-1B5-42" style="edgeStyle=orthogonalEdgeStyle;rounded=0;orthogonalLoop=1;jettySize=auto;html=1;entryX=0.5;entryY=0;entryDx=0;entryDy=0;" edge="1" parent="1" target="rdabpWPBYLlJplFQ-1B5-10">
          <mxGeometry relative="1" as="geometry">
            <mxPoint x="79.45" y="371" as="sourcePoint" />
            <mxPoint x="369.45" y="411" as="targetPoint" />
          </mxGeometry>
        </mxCell>
        <mxCell id="rdabpWPBYLlJplFQ-1B5-43" style="edgeStyle=orthogonalEdgeStyle;rounded=0;orthogonalLoop=1;jettySize=auto;html=1;entryX=0.5;entryY=0;entryDx=0;entryDy=0;" edge="1" parent="1">
          <mxGeometry relative="1" as="geometry">
            <mxPoint x="79.45" y="371" as="sourcePoint" />
            <mxPoint x="79.45" y="411" as="targetPoint" />
          </mxGeometry>
        </mxCell>
        <mxCell id="rdabpWPBYLlJplFQ-1B5-44" style="edgeStyle=orthogonalEdgeStyle;rounded=0;orthogonalLoop=1;jettySize=auto;html=1;entryX=0.5;entryY=0;entryDx=0;entryDy=0;" edge="1" parent="1" target="rdabpWPBYLlJplFQ-1B5-13">
          <mxGeometry relative="1" as="geometry">
            <mxPoint x="80" y="370" as="sourcePoint" />
            <mxPoint x="-380.55" y="421" as="targetPoint" />
          </mxGeometry>
        </mxCell>
        <mxCell id="rdabpWPBYLlJplFQ-1B5-45" style="edgeStyle=orthogonalEdgeStyle;rounded=0;orthogonalLoop=1;jettySize=auto;html=1;entryX=0.5;entryY=0;entryDx=0;entryDy=0;" edge="1" parent="1" target="rdabpWPBYLlJplFQ-1B5-12">
          <mxGeometry relative="1" as="geometry">
            <mxPoint x="80" y="370" as="sourcePoint" />
            <mxPoint x="-210" y="420" as="targetPoint" />
          </mxGeometry>
        </mxCell>
        <mxCell id="rdabpWPBYLlJplFQ-1B5-47" style="edgeStyle=orthogonalEdgeStyle;rounded=0;orthogonalLoop=1;jettySize=auto;html=1;entryX=0.5;entryY=0;entryDx=0;entryDy=0;" edge="1" parent="1">
          <mxGeometry relative="1" as="geometry">
            <mxPoint x="830" y="731" as="sourcePoint" />
            <mxPoint x="1150.55" y="770" as="targetPoint" />
          </mxGeometry>
        </mxCell>
        <mxCell id="rdabpWPBYLlJplFQ-1B5-48" style="edgeStyle=orthogonalEdgeStyle;rounded=0;orthogonalLoop=1;jettySize=auto;html=1;entryX=0.5;entryY=0;entryDx=0;entryDy=0;" edge="1" parent="1">
          <mxGeometry relative="1" as="geometry">
            <mxPoint x="830" y="731" as="sourcePoint" />
            <mxPoint x="360" y="771" as="targetPoint" />
          </mxGeometry>
        </mxCell>
        <mxCell id="rdabpWPBYLlJplFQ-1B5-49" style="edgeStyle=orthogonalEdgeStyle;rounded=0;orthogonalLoop=1;jettySize=auto;html=1;entryX=0.5;entryY=0;entryDx=0;entryDy=0;" edge="1" parent="1">
          <mxGeometry relative="1" as="geometry">
            <mxPoint x="830" y="731" as="sourcePoint" />
            <mxPoint x="990.55" y="770" as="targetPoint" />
          </mxGeometry>
        </mxCell>
        <mxCell id="rdabpWPBYLlJplFQ-1B5-50" style="edgeStyle=orthogonalEdgeStyle;rounded=0;orthogonalLoop=1;jettySize=auto;html=1;entryX=0.5;entryY=0;entryDx=0;entryDy=0;" edge="1" parent="1">
          <mxGeometry relative="1" as="geometry">
            <mxPoint x="830" y="731" as="sourcePoint" />
            <mxPoint x="830" y="771" as="targetPoint" />
          </mxGeometry>
        </mxCell>
        <mxCell id="rdabpWPBYLlJplFQ-1B5-51" style="edgeStyle=orthogonalEdgeStyle;rounded=0;orthogonalLoop=1;jettySize=auto;html=1;entryX=0.5;entryY=0;entryDx=0;entryDy=0;" edge="1" parent="1">
          <mxGeometry relative="1" as="geometry">
            <mxPoint x="830.55" y="730" as="sourcePoint" />
            <mxPoint x="530.55" y="770" as="targetPoint" />
          </mxGeometry>
        </mxCell>
        <mxCell id="rdabpWPBYLlJplFQ-1B5-52" style="edgeStyle=orthogonalEdgeStyle;rounded=0;orthogonalLoop=1;jettySize=auto;html=1;entryX=0.5;entryY=0;entryDx=0;entryDy=0;" edge="1" parent="1">
          <mxGeometry relative="1" as="geometry">
            <mxPoint x="830.55" y="730" as="sourcePoint" />
            <mxPoint x="690.55" y="770" as="targetPoint" />
          </mxGeometry>
        </mxCell>
        <mxCell id="rdabpWPBYLlJplFQ-1B5-55" style="edgeStyle=orthogonalEdgeStyle;rounded=0;orthogonalLoop=1;jettySize=auto;html=1;endArrow=block;startFill=0;entryX=0.5;entryY=0;entryDx=0;entryDy=0;endFill=1;" edge="1" parent="1" target="rdabpWPBYLlJplFQ-1B5-16">
          <mxGeometry relative="1" as="geometry">
            <mxPoint x="550" y="570" as="targetPoint" />
            <mxPoint x="540" y="560" as="sourcePoint" />
            <Array as="points">
              <mxPoint x="540" y="590" />
              <mxPoint x="540" y="590" />
            </Array>
          </mxGeometry>
        </mxCell>
        <mxCell id="rdabpWPBYLlJplFQ-1B5-56" style="edgeStyle=orthogonalEdgeStyle;rounded=0;orthogonalLoop=1;jettySize=auto;html=1;endArrow=block;startFill=0;entryX=0.5;entryY=0;entryDx=0;entryDy=0;endFill=1;" edge="1" parent="1" target="rdabpWPBYLlJplFQ-1B5-15">
          <mxGeometry relative="1" as="geometry">
            <mxPoint x="550" y="640" as="targetPoint" />
            <mxPoint x="540" y="550" as="sourcePoint" />
            <Array as="points">
              <mxPoint x="540" y="600" />
              <mxPoint x="700" y="600" />
            </Array>
          </mxGeometry>
        </mxCell>
        <mxCell id="rdabpWPBYLlJplFQ-1B5-57" style="edgeStyle=orthogonalEdgeStyle;rounded=0;orthogonalLoop=1;jettySize=auto;html=1;endArrow=block;startFill=0;entryX=0.5;entryY=0;entryDx=0;entryDy=0;endFill=1;" edge="1" parent="1" target="rdabpWPBYLlJplFQ-1B5-17">
          <mxGeometry relative="1" as="geometry">
            <mxPoint x="710" y="640" as="targetPoint" />
            <mxPoint x="540" y="550" as="sourcePoint" />
            <Array as="points">
              <mxPoint x="540" y="600" />
              <mxPoint x="380" y="600" />
            </Array>
          </mxGeometry>
        </mxCell>
      </root>
    </mxGraphModel>
  </diagram>
</mxfile>
